<svg width="44" height="44" viewBox="0 0 44 44" fill="none" xmlns="http://www.w3.org/2000/svg">
<g clip-path="url(#clip0_161_820)">
<path d="M26.213 21.1307C27.675 21.1307 29.1155 21.1399 30.5559 21.1154C30.6809 21.1139 30.8492 20.9069 30.9156 20.7597C31.3988 19.6927 32.5413 19.0748 33.6297 19.3155C34.7938 19.5716 35.5997 20.5773 35.5657 21.7317C35.5348 22.7773 34.7367 23.6741 33.6112 23.9302C32.5845 24.1632 31.4606 23.6373 30.9789 22.6224C30.8183 22.2836 30.6331 22.2162 30.3058 22.2192C28.9317 22.2315 27.5562 22.2238 26.1605 22.2238C25.2882 25.4817 23.0836 26.8247 19.7689 26.5395C19.7689 28.5479 19.7689 30.4995 19.7689 32.4787C23.9312 33.0368 27.3725 31.7306 30.0016 28.8146C31.0731 29.7498 32.1275 30.6697 33.2036 31.6095C31.3788 33.512 29.3486 34.829 26.9957 35.6538C24.6614 36.4709 22.2468 36.6074 19.752 36.4142C19.752 37.584 19.7411 38.7001 19.7689 39.8146C19.772 39.9189 20.0237 40.1059 20.1565 40.1028C21.7914 40.0584 23.4449 40.1182 25.0567 39.8913C28.4578 39.4145 31.4961 38.0332 34.1021 35.7902C37.2207 33.1073 39.0178 29.6486 39.8144 25.6902C41.0094 19.7586 39.5628 14.4326 35.6259 9.85629C32.6756 6.42675 28.8438 4.38159 24.3388 3.78368C15.1374 2.56333 7.61105 8.04417 4.84136 16.0132C3.12922 20.9421 3.52908 25.7484 5.90508 30.3953C5.92824 30.4397 5.94368 30.4888 5.9761 30.5256C6.7187 31.3642 6.80361 32.3653 6.76656 33.4262C6.72488 34.6266 6.76656 35.8301 6.76811 37.032C6.76811 37.124 6.74186 37.2175 6.72951 37.3111C6.68319 37.3433 6.63533 37.3739 6.58901 37.4061C5.80473 36.5277 4.9448 35.7013 4.24698 34.7584C1.19786 30.639 -0.251825 25.9799 0.109438 20.8977C0.71 12.461 4.80431 6.17225 12.3692 2.20305C14.6433 1.0103 17.1012 0.366398 19.6655 0.0919729C29.364 -0.94287 39.0888 4.7572 42.6211 14.4326C43.7621 17.5586 44.1527 20.7689 43.8532 24.0819C43.4548 28.5019 41.8786 32.4542 39.0981 35.9083C35.8174 39.9848 31.527 42.4469 26.372 43.3545C24.7201 43.6458 23.0157 43.6443 21.3329 43.7562C20.1549 43.8359 18.9754 43.8896 17.7959 43.9417C17.3513 43.9617 16.9066 43.9448 16.4141 43.9448C16.4141 34.6527 16.4141 25.4096 16.4141 16.073C16.6967 16.073 17.0023 16.0715 17.3096 16.073C18.52 16.0807 19.7319 16.1236 20.9407 16.0899C23.4032 16.0224 25.5831 17.7947 26.108 20.5313C26.1435 20.7229 26.1744 20.9161 26.213 21.1307Z" fill="#272727"/>
<path d="M33.0723 12.0148C32.1059 13.0252 31.1734 14.0002 30.335 14.8756C29.7129 14.3237 29.1108 13.761 28.4778 13.2352C25.2434 10.54 21.6447 9.85163 17.7418 11.5334C15.4646 12.5146 13.8605 14.198 13.3279 16.7061C13.2368 17.1369 13.2044 17.5877 13.2028 18.0292C13.192 26.3923 13.1905 34.7553 13.1874 43.1184C13.1874 43.3637 13.1874 43.6105 13.1874 43.9018C11.9353 43.9018 10.7203 43.9018 9.44354 43.9018C9.43273 43.7148 9.4142 43.5247 9.4142 43.3361C9.41575 34.7921 9.40494 26.2481 9.42656 17.7042C9.43736 13.6767 11.4814 10.8022 14.7838 8.69567C17.2632 7.11351 20.0174 6.64899 22.9137 6.81456C26.3009 7.00773 29.1555 8.41359 31.6566 10.6136C32.0657 10.9739 32.4455 11.3663 32.8346 11.7465C32.9164 11.8232 32.9859 11.9152 33.0723 12.0148Z" fill="#194DEF"/>
</g>
<defs>
<clipPath id="clip0_161_820">
<rect width="44" height="44" fill="white"/>
</clipPath>
</defs>
</svg>
